<svg width="879" height="1024" viewBox="0 0 879 1024" fill="none" xmlns="http://www.w3.org/2000/svg">
<path d="M879 0H0V1024H859.515L510 512L879 0Z" fill="url(#paint0_linear)"/>
<g clip-path="url(#clip0)">
<path d="M-4 642.821H525V642.576H-4V642.821Z" fill="#E7E7E7"/>
<path d="M93.0239 657.799H128.067V657.552H93.0239V657.799Z" fill="#E7E7E7"/>
<path d="M61.6267 657.799H81.9329V657.552H61.6267V657.799Z" fill="#E7E7E7"/>
<path d="M198.462 661.443H218.767V661.196H198.462V661.443Z" fill="#E7E7E7"/>
<path d="M278.935 666.971H324.633V666.724H278.935V666.971Z" fill="#E7E7E7"/>
<path d="M262.814 666.971H269.514V666.724H262.814V666.971Z" fill="#E7E7E7"/>
<path d="M376.528 661.443H475.637V661.196H376.528V661.443Z" fill="#E7E7E7"/>
<path d="M42.4621 318.651C39.2775 318.651 36.6875 321.074 36.6875 324.054V592.771C36.6875 595.751 39.2775 598.174 42.4621 598.174H246.761C249.943 598.174 252.534 595.751 252.534 592.771V324.054C252.534 321.074 249.943 318.651 246.761 318.651H42.4621ZM246.761 598.422H42.4621C39.1325 598.422 36.423 595.887 36.423 592.771V324.054C36.423 320.939 39.1325 318.403 42.4621 318.403H246.761C250.089 318.403 252.799 320.939 252.799 324.054V592.771C252.799 595.887 250.089 598.422 246.761 598.422Z" fill="#E7E7E7"/>
<path d="M271.304 318.651C268.121 318.651 265.531 321.074 265.531 324.054V592.771C265.531 595.751 268.121 598.174 271.304 598.174H475.603C478.786 598.174 481.377 595.751 481.377 592.771V324.054C481.377 321.074 478.786 318.651 475.603 318.651H271.304ZM475.603 598.422H271.304C267.976 598.422 265.266 595.887 265.266 592.771V324.054C265.266 320.939 267.976 318.403 271.304 318.403H475.603C478.932 318.403 481.642 320.939 481.642 324.054V592.771C481.642 595.887 478.932 598.422 475.603 598.422Z" fill="#E7E7E7"/>
<path d="M278.908 644.37H255.644V558.008H278.908V644.37Z" fill="#E1E1E1"/>
<path d="M274.49 644.37H278.909V632.609H269.857L274.49 644.37Z" fill="#FAFAFA"/>
<path d="M176.965 644.37H153.7V558.008H176.965V644.37Z" fill="#E1E1E1"/>
<path d="M278.908 637.153H173.108V558.008H278.908V637.153Z" fill="#FAFAFA"/>
<path d="M275.48 561.516H176.535V583.221H275.48V561.516ZM275.072 582.837H176.943V561.899H275.072V582.837Z" fill="#E1E1E1"/>
<path d="M177.527 644.37H173.108V632.609H182.16L177.527 644.37Z" fill="#FAFAFA"/>
<path d="M223.668 572.368C223.668 573.577 224.716 574.557 226.008 574.557C227.3 574.557 228.348 573.577 228.348 572.368C228.348 571.158 227.3 570.178 226.008 570.178C224.716 570.178 223.668 571.158 223.668 572.368Z" fill="#E7E7E7"/>
<path d="M275.48 586.727H176.535V608.432H275.48V586.727ZM275.072 608.05H176.943V587.11H275.072V608.05Z" fill="#E1E1E1"/>
<path d="M223.668 597.58C223.668 598.789 224.716 599.77 226.008 599.77C227.3 599.77 228.348 598.789 228.348 597.58C228.348 596.37 227.3 595.391 226.008 595.391C224.716 595.391 223.668 596.37 223.668 597.58Z" fill="#E7E7E7"/>
<path d="M275.48 611.94H176.535V633.645H275.48V611.94ZM275.072 633.262H176.943V612.323H275.072V633.262Z" fill="#E1E1E1"/>
<path d="M223.668 622.793C223.668 624.002 224.716 624.982 226.008 624.982C227.3 624.982 228.348 624.002 228.348 622.793C228.348 621.583 227.3 620.603 226.008 620.603C224.716 620.603 223.668 621.583 223.668 622.793Z" fill="#E7E7E7"/>
<path d="M162.751 644.37H139.487V507.853H162.751V644.37Z" fill="#E1E1E1"/>
<path d="M158.333 644.37H162.752V632.609H153.7L158.333 644.37Z" fill="#FAFAFA"/>
<path d="M75.8028 644.37H52.5385V507.853H75.8028V644.37Z" fill="#E1E1E1"/>
<path d="M162.751 637.153H71.9453V507.853H162.751V637.153Z" fill="#FAFAFA"/>
<path d="M159.323 511.063H75.3733V541.24H159.323V511.063ZM158.842 540.788H75.8568V511.514H158.842V540.788Z" fill="#E1E1E1"/>
<path d="M159.323 543.896H118.832V622.45H159.323V543.896ZM158.842 621.998H119.314V544.346H158.842V621.998Z" fill="#E1E1E1"/>
<path d="M115.866 543.896H75.3743V622.45H115.866V543.896ZM115.384 621.998H75.8557V544.346H115.384V621.998Z" fill="#E1E1E1"/>
<path d="M76.3646 644.37H71.9464V632.609H80.9976L76.3646 644.37Z" fill="#FAFAFA"/>
<path d="M115.009 526.151C115.009 527.361 116.056 528.341 117.348 528.341C118.641 528.341 119.689 527.361 119.689 526.151C119.689 524.942 118.641 523.962 117.348 523.962C116.056 523.962 115.009 524.942 115.009 526.151Z" fill="#E7E7E7"/>
<path d="M123.387 581.32C123.387 582.53 124.434 583.51 125.726 583.51C127.019 583.51 128.066 582.53 128.066 581.32C128.066 580.11 127.019 579.13 125.726 579.13C124.434 579.13 123.387 580.11 123.387 581.32Z" fill="#E7E7E7"/>
<path d="M106.631 581.32C106.631 582.53 107.679 583.51 108.97 583.51C110.263 583.51 111.311 582.53 111.311 581.32C111.311 580.11 110.263 579.13 108.97 579.13C107.679 579.13 106.631 580.11 106.631 581.32Z" fill="#E7E7E7"/>
<path d="M103.995 469.79H94.181C94.181 469.79 95.8844 478.279 95.8844 483.275C95.8844 488.27 88.4191 507.853 99.088 507.853C109.756 507.853 102.292 488.27 102.292 483.275C102.292 478.279 103.995 469.79 103.995 469.79Z" fill="#E1E1E1"/>
<path d="M66.6778 489.867V495.834C66.6778 502.444 72.4576 507.852 79.523 507.852H85.8985C92.9638 507.852 98.7437 502.444 98.7437 495.834V489.867H66.6778Z" fill="#F5F5F5"/>
<path d="M203.015 545.422C203.015 552.344 211.3 558.008 221.428 558.008H230.568C240.694 558.008 248.98 552.344 248.98 545.422H203.015Z" fill="#E1E1E1"/>
<path d="M445.234 535.289C439.69 539.523 432.038 547.277 425.026 558.186C420.357 565.45 417.542 573.061 416.306 583.119C416.333 571.735 416.371 559.503 416.414 547.96C417.822 544.989 421.038 538.143 423.346 532.734C431.044 514.685 433.912 510.247 440.836 494.678C450.071 473.915 459.536 449.276 456.826 451.245C451.303 455.257 430.143 492.334 427.856 497.641C419.989 515.897 417.796 529.203 416.435 542.045C416.478 531.203 416.524 521.247 416.567 513.566C416.709 488.511 417.165 480.424 417.387 477.93C418.243 476.663 419.254 475.186 419.843 474.39C424.813 467.665 426.731 461.936 431.413 451.905C438.051 437.692 443.766 412.457 442.094 413.73C435.138 419.029 429.65 430.423 422.439 444.942C415.229 459.459 417.29 467.809 415.859 480.208C415.559 482.642 415.329 491.824 415.163 504.551C413.294 490.991 409.784 482.057 403.383 473.938C395.51 463.952 387.894 457.206 382.305 453.683C376.715 450.161 391.955 474.691 399.242 485.397C405.732 494.933 411.71 503.346 415.081 511.632C414.903 528.88 414.82 550.721 414.819 571.052C413.148 561.799 410.418 551.837 406.775 544.122C402.4 534.852 395.667 520.635 390.31 515.813C389.022 514.653 395.913 542.305 400.334 549.659C404.757 557.011 408.004 563.94 410.786 568.108C411.436 569.081 413.59 572.83 414.82 574.987C414.833 599.806 414.967 621.706 415.198 629.161H416.344C416.265 627.238 416.253 614.613 416.277 597.903C419.036 588.829 425.347 578.476 430.556 569.029C436.241 558.72 450.777 531.055 445.234 535.289Z" fill="#E1E1E1"/>
<path d="M432.362 644.37H399.2L396.698 613.953H434.865L432.362 644.37Z" fill="#F0F0F0"/>
<path d="M437.336 617.498H394.227L392.992 607.235H438.572L437.336 617.498Z" fill="#F5F5F5"/>
<path d="M127.466 399.676H68.163V338.742H127.466V399.676Z" fill="#E1E1E1"/>
<path d="M133.89 399.676H72.6352V338.742H133.89V399.676Z" fill="#F5F5F5"/>
<path d="M77.7654 343.545H128.758V394.875H77.7654V343.545Z" fill="white"/>
<path d="M90.125 355.986H116.398V382.433H90.125V355.986Z" fill="#F5F5F5"/>
<path d="M429.834 402.451H374.744V345.845H429.834V402.451Z" fill="#E1E1E1"/>
<path d="M435.8 402.451H378.897V345.845H435.8V402.451Z" fill="#F5F5F5"/>
<path d="M383.664 350.306H431.033V397.99H383.664V350.306Z" fill="white"/>
<path d="M422.127 374.148C422.127 381.785 415.51 387.976 407.348 387.976C399.186 387.976 392.57 381.785 392.57 374.148C392.57 366.511 399.186 360.32 407.348 360.32C415.51 360.32 422.127 366.511 422.127 374.148Z" fill="#F5F5F5"/>
<path d="M189.074 420.276H145.082V375.075H189.074V420.276Z" fill="#E1E1E1"/>
<path d="M193.84 420.276H148.399V375.075H193.84V420.276Z" fill="#F5F5F5"/>
<path d="M152.205 378.637H190.032V416.714H152.205V378.637Z" fill="white"/>
<path d="M171.119 388.05L160.774 404.818H181.464L171.119 388.05Z" fill="#F5F5F5"/>
<path d="M138.257 499.368C200.187 559.118 281.581 600.548 357.028 533.645C395.92 499.158 447.319 406.001 396.601 363.373C326.704 304.625 286.591 400.751 234.331 413.775C198.51 422.703 168.395 371.245 125.511 405.604C91.6109 432.764 112.512 474.528 138.257 499.368Z" fill="#F5F5F5"/>
<path d="M465.634 676.076C465.634 682.267 373.792 687.286 260.5 687.286C147.207 687.286 55.3662 682.267 55.3662 676.076C55.3662 669.884 147.207 664.866 260.5 664.866C373.792 664.866 465.634 669.884 465.634 676.076Z" fill="#F5F5F5"/>
<path d="M365.501 425.797L355.008 421.816C355.008 421.816 341.159 445.45 337.191 446.643C331.794 448.265 320.632 452.78 313.998 453.625C313.104 454.603 311.629 457.688 311.77 458.813C320.67 461.59 340.22 457.902 344.407 454.993C353.947 448.362 365.501 425.797 365.501 425.797Z" fill="#FF8B7B"/>
<path d="M368.733 420.435C370.686 427.205 360.085 440.806 360.085 440.806L346.16 433.497C346.16 433.497 348.756 427.906 351.934 422.212C357.067 413.017 366.505 412.708 368.733 420.435Z" fill="#3C91E6"/>
<g opacity="0.199997">
<g opacity="0.199997">
<path opacity="0.199997" d="M368.733 420.435C370.686 427.205 360.085 440.806 360.085 440.806L346.16 433.497C346.16 433.497 348.756 427.906 351.934 422.212C357.067 413.017 366.505 412.708 368.733 420.435Z" fill="black"/>
</g>
</g>
<g opacity="0.199997">
<g opacity="0.199997">
<path opacity="0.199997" d="M351.712 436.406L357.181 439.275L358.137 423.568C354.962 425.857 352.712 432.744 351.712 436.406Z" fill="black"/>
</g>
</g>
<path d="M359.594 415.334C359.594 415.334 348.782 437.843 355.085 479.76H397.692C398.368 473.64 396.129 443.786 404.244 414.95C404.244 414.95 397.028 413.579 390.087 413.265C384.658 413.02 376.788 412.857 371.976 413.266C365.632 413.805 359.594 415.334 359.594 415.334Z" fill="#3C91E6"/>
<g opacity="0.199997">
<g opacity="0.199997">
<path opacity="0.199997" d="M359.594 415.334C359.594 415.334 348.782 437.843 355.085 479.76H397.692C398.368 473.64 396.129 443.786 404.244 414.95C404.244 414.95 397.028 413.579 390.087 413.265C384.658 413.02 376.788 412.857 371.976 413.266C365.632 413.805 359.594 415.334 359.594 415.334Z" fill="black"/>
</g>
</g>
<path d="M349.714 676.97C349.647 678.033 365.801 678.895 385.794 678.895C405.787 678.895 422.047 678.033 422.115 676.97C422.182 675.908 406.028 675.046 386.035 675.046C366.042 675.046 349.78 675.908 349.714 676.97Z" fill="#E7EDF2"/>
<path d="M385.684 666.037L378.102 668.771L371.588 652.985L379.17 650.251L385.684 666.037Z" fill="#FF8B7B"/>
<path d="M411.848 669.36H403.883L400.96 652.098H408.926L411.848 669.36Z" fill="#FF8B7B"/>
<path d="M403.37 668.496H412.32C412.646 668.496 412.914 668.708 412.965 669.006L414.124 675.631C414.244 676.318 413.627 676.969 412.874 676.957C409.753 676.906 408.247 676.735 404.312 676.735C401.89 676.735 396.887 676.971 393.544 676.971C390.273 676.971 389.957 673.877 391.344 673.596C397.56 672.34 399.98 670.608 402.049 668.955C402.422 668.657 402.894 668.496 403.37 668.496Z" fill="#1A2E35"/>
<path d="M376.851 665.887L385.337 663.578C385.655 663.492 385.982 663.621 386.123 663.886L389.267 669.823C389.594 670.438 389.209 671.21 388.471 671.398C385.398 672.182 383.331 672.674 379.483 673.721C376.826 674.444 374.12 675.622 371.494 676.406C369.675 676.948 365.404 676.97 363.191 676.97C359.921 676.97 359.193 673.744 360.594 673.596C364.14 673.224 364.617 673.397 366.575 672.477C369.812 670.958 372.316 669.699 375.119 666.952C375.609 666.474 376.18 666.069 376.851 665.887Z" fill="#1A2E35"/>
<path d="M315.339 453.555L306.574 450.103L302.966 459.19C302.966 459.19 308.024 460.048 313.801 459.19L315.339 453.555Z" fill="#FF8B7B"/>
<path d="M300.059 449.881L299.828 455.926L302.966 459.19L306.573 450.103L300.059 449.881Z" fill="#FF8B7B"/>
<path d="M371.591 652.989L374.948 661.127L382.533 658.391L379.176 650.253L371.591 652.989Z" fill="#EA7064"/>
<path d="M408.928 652.103H400.96L402.47 661H410.439L408.928 652.103Z" fill="#EA7064"/>
<g opacity="0.199997">
<g opacity="0.199997">
<path opacity="0.199997" d="M353.734 468.422C353.888 470.213 354.072 472.044 354.299 473.926L385.981 464.302C390.928 462.919 395.234 460.009 398.169 456.031C398.289 453.386 398.453 450.609 398.691 447.709C398.8 446.294 398.93 444.85 399.071 443.385C399.224 441.859 399.397 440.303 399.594 438.736L353.734 468.422Z" fill="black"/>
</g>
</g>
<path d="M364.078 435.951L362.998 435.83C363.628 430.891 367.569 426.987 371.732 427.079L371.7 428.096C368.106 427.999 364.643 431.521 364.078 435.951Z" fill="white"/>
<path d="M369.715 445.093C369.655 445.093 369.596 445.093 369.537 445.091L369.568 444.073C373.207 444.198 376.624 440.65 377.19 436.219L378.27 436.339C377.65 441.209 373.833 445.093 369.715 445.093Z" fill="white"/>
<path d="M389.489 394.182C388.005 399.635 386.239 409.626 390.087 413.265C390.087 413.265 387.399 418.797 376.571 418.797C366.677 418.797 371.976 413.265 371.976 413.265C378.566 411.814 378.681 407.302 377.814 403.065L389.489 394.182Z" fill="#FF8B7B"/>
<path d="M384.729 397.807L377.819 403.061C378.028 404.063 378.176 405.08 378.189 406.068C380.209 407.951 384.264 403.183 384.678 400.751C384.886 399.538 384.905 398.372 384.729 397.807Z" fill="#EA7064"/>
<path d="M365.945 394.115C366.957 395.813 368.744 396.868 370.433 397.22C372.974 397.749 374.25 395.562 373.548 393.362C372.919 391.381 370.838 388.718 368.285 389.175C365.77 389.624 364.786 392.175 365.945 394.115Z" fill="#EA7064"/>
<path d="M370.136 376.662C366.179 378.358 364.785 393.068 369.761 395.243C374.734 397.417 377.632 373.449 370.136 376.662Z" fill="#1A2E35"/>
<path d="M390.696 385.976C389.749 393.36 389.595 397.705 385.372 401.495C379.02 407.195 369.491 403.813 368.071 396.444C366.791 389.81 368.555 378.849 376.464 375.911C384.254 373.015 391.644 378.593 390.696 385.976Z" fill="#FF8B7B"/>
<path d="M377.698 380.488C383.551 379.087 387.859 378.133 386.321 382.705C384.274 388.795 381.818 394.696 385.113 394.97C387.116 395.137 396.005 391.608 394.876 388.04C393.893 384.931 398.025 384.093 398.786 382.508C401.53 376.8 393.69 377.541 395.086 374.087C396.445 370.724 388.771 365.04 384.519 367.817C377.636 372.312 365.808 372.248 372.027 364.874C376.48 359.593 368.534 360.677 368.534 360.677C368.534 360.677 373.334 363.342 365.255 367.46C356.693 371.826 364.531 383.641 377.698 380.488Z" fill="#1A2E35"/>
<path d="M393.75 394.115C392.525 395.813 390.606 396.868 388.873 397.22C386.267 397.749 385.264 395.562 386.239 393.362C387.117 391.381 389.534 388.718 392.029 389.175C394.486 389.624 395.152 392.175 393.75 394.115Z" fill="#FF8B7B"/>
<path d="M355.086 479.76C355.086 479.76 347.935 539.652 347.377 562.383C346.796 586.026 371.614 659.794 371.614 659.794L384.321 654.8C384.321 654.8 369.524 587.407 371.58 564.187C373.821 538.874 383.093 479.76 383.093 479.76H355.086Z" fill="#3C91E6"/>
<g opacity="0.199997">
<g opacity="0.199997">
<path opacity="0.199997" d="M372.859 496.206C367.161 507.274 370.999 529.158 374.087 542.128C375.261 532.972 376.653 523.033 377.979 513.836C377.849 499.695 376.674 488.78 372.859 496.206Z" fill="black"/>
</g>
</g>
<path d="M383.747 650.917C383.806 650.894 385.253 654.707 385.253 654.707L370.606 660.463L368.298 656.447L383.747 650.917Z" fill="#3C91E6"/>
<path d="M370.2 479.76C370.2 479.76 375.671 536.723 379.297 558.064C383.268 581.433 398.865 659.278 398.865 659.278H413.454C413.454 659.278 404.712 583.319 403.062 560.182C401.268 535.069 397.691 479.76 397.691 479.76H370.2Z" fill="#3C91E6"/>
<path d="M413.678 655.72C413.74 655.72 414.165 659.535 414.165 659.535H398.129L396.984 655.155L413.678 655.72Z" fill="#3C91E6"/>
<g opacity="0.199997">
<g opacity="0.199997">
<path opacity="0.199997" d="M408.088 651.211C408.019 651.211 407.961 651.162 407.954 651.098C407.874 650.407 399.991 581.831 398.507 561.043C396.897 538.484 393.661 488.464 393.628 487.961C393.624 487.891 393.681 487.831 393.755 487.826H393.765C393.835 487.826 393.896 487.879 393.9 487.946C393.932 488.448 397.168 538.468 398.779 561.025C400.262 581.808 408.144 650.38 408.223 651.07C408.232 651.142 408.178 651.203 408.104 651.21C408.097 651.211 408.092 651.211 408.088 651.211Z" fill="black"/>
</g>
</g>
<path d="M378.598 388.04C378.561 388.641 378.189 389.129 377.77 389.129C377.35 389.129 377.04 388.641 377.078 388.04C377.115 387.439 377.486 386.951 377.906 386.951C378.326 386.951 378.636 387.439 378.598 388.04Z" fill="#1A2E35"/>
<path d="M371.336 388.04C371.299 388.641 370.927 389.129 370.507 389.129C370.087 389.129 369.777 388.641 369.815 388.04C369.854 387.439 370.224 386.951 370.644 386.951C371.064 386.951 371.374 387.439 371.336 388.04Z" fill="#1A2E35"/>
<path d="M373.626 388.339C373.626 388.339 371.947 391.807 370.234 393.481C371.309 394.473 373.27 394.02 373.27 394.02L373.626 388.339Z" fill="#FF5652"/>
<path d="M373.81 396.542C373.707 396.542 373.626 396.463 373.633 396.366C373.639 396.268 373.729 396.189 373.832 396.189C376.653 396.189 378.085 394.345 378.099 394.327C378.162 394.245 378.281 394.223 378.364 394.276C378.448 394.329 378.464 394.438 378.403 394.521C378.34 394.603 376.833 396.542 373.81 396.542Z" fill="#1A2E35"/>
<path d="M379.89 386.211C379.781 386.251 379.657 386.245 379.557 386.185C378.168 385.367 376.874 385.915 376.862 385.922C376.684 386.007 376.448 385.932 376.369 385.757C376.289 385.581 376.382 385.369 376.575 385.285C376.644 385.254 378.265 384.566 379.986 385.581C380.158 385.683 380.201 385.9 380.082 386.066C380.035 386.134 379.965 386.184 379.89 386.211Z" fill="#1A2E35"/>
<path d="M368.529 384.237C368.476 384.223 368.426 384.198 368.384 384.161C368.238 384.032 368.237 383.809 368.384 383.663C369.862 382.202 371.573 382.425 371.644 382.435C371.846 382.456 371.981 382.643 371.937 382.836C371.895 383.029 371.695 383.162 371.492 383.134C371.435 383.126 370.098 382.967 368.918 384.132C368.814 384.236 368.66 384.272 368.529 384.237Z" fill="#1A2E35"/>
<path d="M408.334 424.694L397.328 421.952C397.328 421.952 386.535 446.808 382.724 448.432C377.538 450.641 364.402 458.279 358.82 461.963C358.512 463.194 358.755 466.478 359.457 467.371C368.948 465.757 387.208 459.188 391.016 455.85C399.698 448.238 408.334 424.694 408.334 424.694Z" fill="#FF8B7B"/>
<path d="M399.568 668.256C399.469 668.256 399.385 668.27 399.32 668.3C399.268 668.325 399.205 668.37 399.189 668.507C399.151 668.788 399.222 668.998 399.404 669.148C399.817 669.492 400.856 669.538 402.224 669.282C401.354 668.795 400.177 668.256 399.568 668.256ZM400.654 669.798C400.048 669.798 399.488 669.701 399.145 669.419C398.873 669.193 398.761 668.879 398.813 668.484C398.851 668.191 399.026 668.052 399.167 667.986C400.066 667.564 402.551 669.04 402.832 669.209C402.893 669.248 402.923 669.318 402.906 669.389C402.89 669.457 402.83 669.514 402.756 669.531C402.194 669.655 401.391 669.798 400.654 669.798Z" fill="#3C91E6"/>
<path d="M401.292 666.514C401.265 666.514 401.236 666.517 401.207 666.519C400.96 666.547 400.932 666.654 400.92 666.697C400.789 667.188 401.727 668.423 402.51 669.005C402.457 668.376 402.282 667.122 401.716 666.669C401.587 666.566 401.448 666.514 401.292 666.514ZM402.711 669.536C402.681 669.536 402.649 669.529 402.622 669.515C401.824 669.095 400.333 667.463 400.554 666.631C400.593 666.482 400.729 666.22 401.182 666.169C401.481 666.134 401.744 666.211 401.973 666.395C402.854 667.103 402.909 669.255 402.91 669.345C402.912 669.41 402.875 669.472 402.815 669.506C402.783 669.526 402.747 669.536 402.711 669.536Z" fill="#3C91E6"/>
<path d="M370.84 667.39C370.696 667.423 370.582 667.469 370.507 667.532C370.44 667.587 370.416 667.651 370.425 667.741C370.454 667.977 370.563 668.142 370.76 668.242C371.322 668.528 372.627 668.302 374.306 667.645C373.125 667.413 371.583 667.221 370.84 667.39ZM372.56 668.566C371.781 668.742 371.038 668.795 370.565 668.554C370.263 668.401 370.09 668.146 370.051 667.798C370.025 667.591 370.1 667.41 370.265 667.274C371.118 666.564 374.568 667.327 374.961 667.416C375.037 667.434 375.091 667.495 375.094 667.57C375.097 667.646 375.05 667.716 374.975 667.749C374.334 668.022 373.425 668.37 372.56 668.566Z" fill="#3C91E6"/>
<path d="M372.438 665.259C372.401 665.267 372.365 665.279 372.328 665.29C371.999 665.398 372.002 665.524 372.003 665.565C372.016 666.076 373.536 667.016 374.61 667.333C374.397 666.787 373.881 665.684 373.128 665.337C372.901 665.232 372.674 665.205 372.438 665.259ZM374.939 667.759C374.913 667.765 374.886 667.765 374.86 667.762C373.835 667.585 371.646 666.445 371.625 665.593C371.62 665.394 371.72 665.121 372.221 664.958C372.585 664.831 372.96 664.856 373.311 665.018C374.46 665.548 375.061 667.449 375.087 667.53C375.105 667.59 375.087 667.654 375.041 667.703C375.014 667.731 374.977 667.751 374.939 667.759Z" fill="#3C91E6"/>
<path d="M359.717 461.379L348.685 466.131L347.404 469.044L351.482 471.611C351.482 471.611 359.091 470.836 361.259 466.261L359.717 461.379Z" fill="#FF8B7B"/>
<path d="M360.187 467.54C359.497 463.704 358.149 461.955 358.137 461.937L359.875 460.718C359.944 460.801 361.543 462.821 362.331 467.202L360.187 467.54Z" fill="#1A2E35"/>
<path d="M362.066 462.783C362.423 463.611 361.849 464.61 360.781 465.013C359.714 465.417 358.56 465.073 358.202 464.244C357.844 463.417 358.419 462.418 359.486 462.014C360.553 461.61 361.708 461.954 362.066 462.783Z" fill="#1A2E35"/>
<path d="M341.229 469.968L342.696 471.357L352.594 467.395L348.685 466.131L341.229 469.968Z" fill="#FF8B7B"/>
<g opacity="0.199997">
<g opacity="0.199997">
<path opacity="0.199997" d="M383.747 650.917C383.806 650.894 385.253 654.707 385.253 654.707L370.606 660.463L368.298 656.447L383.747 650.917Z" fill="black"/>
</g>
</g>
<g opacity="0.199997">
<g opacity="0.199997">
<path opacity="0.199997" d="M413.678 655.72C413.74 655.72 414.165 659.535 414.165 659.535H398.129L396.984 655.155L413.678 655.72Z" fill="black"/>
</g>
</g>
<path d="M411.203 421.845C414.115 430.623 402.781 442.615 402.781 442.615L387.072 436.616C387.072 436.616 389.286 430.238 393.498 421.695C398.286 411.983 408.265 412.986 411.203 421.845Z" fill="#3C91E6"/>
<g opacity="0.199997">
<g opacity="0.199997">
<path opacity="0.199997" d="M411.203 421.845C414.115 430.623 402.781 442.615 402.781 442.615L387.072 436.616C387.072 436.616 389.286 430.238 393.498 421.695C398.286 411.983 408.265 412.986 411.203 421.845Z" fill="black"/>
</g>
</g>
<path d="M255.078 334.881H248.32V333.864H255.078V334.881Z" fill="#007CFF"/>
<path d="M342.872 391.254L341.788 391.209L342.598 374.22L343.684 374.267L342.872 391.254Z" fill="#007CFF"/>
<path d="M340.498 338.442H215.655L204.034 581.704H328.877L340.498 338.442Z" fill="#3C91E6"/>
<g opacity="0.559998">
<g opacity="0.559998">
<path opacity="0.559998" d="M336.771 341.78H211.928L200.307 585.042H325.15L336.771 341.78Z" fill="#FAFAFA"/>
</g>
</g>
<g opacity="0.0700073">
<g opacity="0.0700073">
<path opacity="0.0700073" d="M333.044 345.118H208.201L196.58 588.38H321.423L333.044 345.118Z" fill="#FF5652"/>
</g>
</g>
<path d="M318.834 451.214H212.275L211.385 469.833H317.945L318.834 451.214Z" fill="white"/>
<path d="M270.884 437.636H212.923L212.526 445.966H270.486L270.884 437.636Z" fill="#FF8B7B"/>
<path d="M316.435 501.451H209.875L208.985 520.069H315.545L316.435 501.451Z" fill="white"/>
<path d="M258.36 487.872H210.524L210.126 496.202H257.962L258.36 487.872Z" fill="#FF8B7B"/>
<path d="M295.526 391.095C295.259 396.67 293.1 401.818 289.639 405.999C284.41 412.338 276.222 416.457 267.209 416.457C258.197 416.457 250.414 412.338 245.791 405.999C242.729 401.818 241.061 396.67 241.327 391.095C241.997 377.087 254.673 365.732 269.632 365.732C284.604 365.732 296.195 377.087 295.526 391.095Z" fill="white"/>
<path d="M298.075 371.042C298.005 372.523 297.431 373.891 296.511 375.002C295.122 376.686 292.945 377.781 290.551 377.781C288.156 377.781 286.088 376.686 284.86 375.002C284.046 373.891 283.603 372.523 283.674 371.042C283.852 367.319 287.219 364.303 291.195 364.303C295.173 364.303 298.253 367.319 298.075 371.042Z" fill="#007CFF"/>
<path d="M223.75 460.524C223.672 462.172 222.18 463.508 220.42 463.508C218.659 463.508 217.296 462.172 217.374 460.524C217.452 458.876 218.944 457.541 220.706 457.541C222.466 457.541 223.829 458.876 223.75 460.524Z" fill="#1A2E35"/>
<path d="M238.02 460.524C237.942 462.172 236.45 463.508 234.689 463.508C232.929 463.508 231.565 462.172 231.643 460.524C231.722 458.876 233.214 457.541 234.974 457.541C236.736 457.541 238.098 458.876 238.02 460.524Z" fill="#1A2E35"/>
<path d="M252.29 460.524C252.211 462.172 250.719 463.508 248.959 463.508C247.198 463.508 245.835 462.172 245.913 460.524C245.991 458.876 247.483 457.541 249.244 457.541C251.005 457.541 252.368 458.876 252.29 460.524Z" fill="#1A2E35"/>
<path d="M221.35 510.76C221.272 512.407 219.78 513.743 218.02 513.743C216.259 513.743 214.896 512.407 214.974 510.76C215.053 509.112 216.544 507.776 218.305 507.776C220.066 507.776 221.43 509.112 221.35 510.76Z" fill="#1A2E35"/>
<path d="M235.62 510.76C235.542 512.407 234.05 513.743 232.289 513.743C230.529 513.743 229.165 512.407 229.243 510.76C229.323 509.112 230.813 507.776 232.575 507.776C234.336 507.776 235.699 509.112 235.62 510.76Z" fill="#1A2E35"/>
<path d="M249.89 510.76C249.811 512.407 248.319 513.743 246.559 513.743C244.798 513.743 243.435 512.407 243.513 510.76C243.592 509.112 245.083 507.776 246.845 507.776C248.605 507.776 249.969 509.112 249.89 510.76Z" fill="#1A2E35"/>
<path d="M264.16 510.76C264.08 512.407 262.59 513.743 260.829 513.743C259.067 513.743 257.704 512.407 257.783 510.76C257.861 509.112 259.353 507.776 261.114 507.776C262.874 507.776 264.238 509.112 264.16 510.76Z" fill="#1A2E35"/>
<path d="M278.428 510.76C278.35 512.407 276.859 513.743 275.099 513.743C273.337 513.743 271.973 512.407 272.053 510.76C272.131 509.112 273.622 507.776 275.383 507.776C277.144 507.776 278.507 509.112 278.428 510.76Z" fill="#1A2E35"/>
<path d="M279.794 382.618C279.523 388.284 274.395 392.875 268.342 392.875C262.287 392.875 257.598 388.284 257.869 382.618C258.14 376.953 263.267 372.36 269.322 372.36C275.376 372.36 280.065 376.953 279.794 382.618Z" fill="#007CFF"/>
<path d="M289.638 405.999C284.411 412.337 276.222 416.457 267.21 416.457C258.197 416.457 250.413 412.337 245.792 405.999C250.934 401.207 259.074 398.095 268.087 398.095C277.111 398.095 284.952 401.207 289.638 405.999Z" fill="#007CFF"/>
<g opacity="0.100006">
<g opacity="0.100006">
<path opacity="0.100006" d="M284.06 385.757C283.789 391.423 278.661 396.015 272.608 396.015C266.553 396.015 261.864 391.423 262.135 385.757C262.406 380.092 267.533 375.5 273.588 375.5C279.642 375.5 284.331 380.092 284.06 385.757Z" fill="white"/>
</g>
</g>
<g opacity="0.100006">
<g opacity="0.100006">
<path opacity="0.100006" d="M289.638 405.999C284.411 412.337 276.222 416.457 267.21 416.457C258.197 416.457 250.413 412.337 245.792 405.999C250.934 401.207 259.074 398.095 268.087 398.095C277.111 398.095 284.952 401.207 289.638 405.999Z" fill="white"/>
</g>
</g>
<path d="M133.971 474.318C132.968 476.375 131.915 478.637 130.989 480.844C130.055 483.071 129.124 485.302 128.313 487.562C126.737 492.083 125.258 496.648 124.531 501.224L124.29 502.682C124.272 502.857 124.285 503.107 124.367 503.419C124.522 504.048 124.941 504.89 125.53 505.715C126.721 507.385 128.41 509.076 130.23 510.647C132.048 512.242 134.02 513.767 136.07 515.216C138.101 516.678 140.242 518.108 142.338 519.448L140.366 522.922C135.332 520.863 130.644 518.4 126.103 515.311C123.872 513.718 121.666 512.005 119.713 509.689C118.75 508.521 117.804 507.2 117.184 505.459C116.883 504.59 116.674 503.606 116.673 502.543C116.68 502.299 116.694 501.956 116.712 501.791L116.765 501.299L116.87 500.316C117.445 495.068 118.689 490.024 120.325 485.131C121.149 482.688 122.031 480.269 123.036 477.896C124.062 475.506 125.075 473.214 126.358 470.81L133.971 474.318Z" fill="#FF8B7B"/>
<path d="M140.855 518.858L148.33 515.309L146.4 522.998C146.4 522.998 141.266 524.339 138.878 522.008L140.855 518.858Z" fill="#FF8B7B"/>
<path d="M155.177 516.571L153.188 522.927L146.399 522.998L148.331 515.31L155.177 516.571Z" fill="#FF8B7B"/>
<path d="M165.738 437.251C165.738 437.251 166.386 439.483 167.415 441.166C166.531 441.937 165.738 441.669 165.738 441.669V437.251Z" fill="#FF5652"/>
<path d="M164.724 436.175C164.724 436.802 165.078 437.309 165.516 437.309C165.954 437.309 166.308 436.802 166.308 436.175C166.308 435.548 165.954 435.04 165.516 435.04C165.078 435.04 164.724 435.548 164.724 436.175Z" fill="#1A2E35"/>
<path d="M165.323 435.075L166.931 434.642C166.931 434.642 166.106 435.818 165.323 435.075Z" fill="#1A2E35"/>
<path d="M145.069 444.513C146.035 449.121 146.998 457.566 143.552 460.642C143.552 460.642 144.899 465.316 154.05 465.316C164.114 465.316 158.86 460.642 158.86 460.642C153.368 459.414 153.51 455.602 154.466 452.02L145.069 444.513Z" fill="#FF8B7B"/>
<path d="M142.398 434.024C142.903 441.719 142.941 444.985 147.094 448.934C153.341 454.875 163.33 452.612 165.291 444.931C167.058 438.019 165.936 426.598 157.887 423.535C149.958 420.519 141.894 426.331 142.398 434.024Z" fill="#FF8B7B"/>
<path d="M143.209 425.319C139.086 426.726 133.585 425.679 135.743 437.588C138.029 450.196 134.511 454.345 134.511 454.345C134.511 454.345 150.161 457.464 166.137 454.158C166.137 454.158 161.259 446.176 162.627 440.353C164.373 432.925 162.99 430.18 162.99 430.18C162.99 430.18 149.008 423.341 143.209 425.319Z" fill="#1A2E35"/>
<path d="M160.667 438.035C160.65 439.559 161.222 441.095 161.962 442.161C163.077 443.767 164.399 443.112 164.73 441.447C165.028 439.948 164.807 437.307 163.38 436.282C161.974 435.273 160.687 436.291 160.667 438.035Z" fill="#FF8B7B"/>
<path d="M139.628 426.665C138.437 423.552 144.091 418.763 156.045 420.755C167.997 422.747 168.522 432.049 168.522 432.049L166.103 429.363L166.211 432.192L153.928 434.4L139.628 426.665Z" fill="#1A2E35"/>
<path d="M140.641 461.164C140.476 460.214 141.159 459.317 142.175 459.16C145.898 458.585 154.357 457.42 158.615 457.972C161.778 458.382 162.615 460.112 162.749 461.525C162.848 462.573 161.921 463.456 160.799 463.41L142.401 462.631C141.517 462.594 140.782 461.982 140.641 461.164Z" fill="#3C91E6"/>
<g opacity="0.600006">
<g opacity="0.600006">
<path opacity="0.600006" d="M140.641 461.164C140.476 460.214 141.159 459.317 142.175 459.16C145.898 458.585 154.357 457.42 158.615 457.972C161.778 458.382 162.615 460.112 162.749 461.525C162.848 462.573 161.921 463.456 160.799 463.41L142.401 462.631C141.517 462.594 140.782 461.982 140.641 461.164Z" fill="black"/>
</g>
</g>
<path d="M151.272 634.123L158.091 638.553L169.508 624.073L162.69 619.644L151.272 634.123Z" fill="#FF8B7B"/>
<path d="M135.355 633.831L142.567 637.674L152.673 622.361L145.461 618.516L135.355 633.831Z" fill="#FF8B7B"/>
<path d="M169.504 624.077L163.62 631.54L156.799 627.109L162.683 619.645L169.504 624.077Z" fill="#EA7064"/>
<path d="M145.456 618.521L152.671 622.366L147.46 630.256L140.243 626.412L145.456 618.521Z" fill="#EA7064"/>
<path d="M157.025 509.508C157.025 509.508 183.667 540.926 178.669 570.97C174.631 595.236 151.253 628.096 151.253 628.096L140.26 622.983C140.26 622.983 152.204 601.146 160.046 577.997C163.335 568.289 161.933 557.593 155.784 549.19C142.289 530.746 120.669 541.72 135.212 509.508H157.025Z" fill="#3C91E6"/>
<g opacity="0.600006">
<g opacity="0.600006">
<path opacity="0.600006" d="M157.025 509.508C157.025 509.508 183.667 540.926 178.669 570.97C174.631 595.236 151.253 628.096 151.253 628.096L140.26 622.983C140.26 622.983 152.204 601.146 160.046 577.997C163.335 568.289 161.933 557.593 155.784 549.19C142.289 530.746 120.669 541.72 135.212 509.508H157.025Z" fill="black"/>
</g>
</g>
<g opacity="0.399994">
<g opacity="0.399994">
<path opacity="0.399994" d="M170.093 529.696L166.222 526.094C166.222 526.38 173.724 569.708 175.834 581.886C177.106 578.152 178.084 574.47 178.671 570.969C181.118 556.259 175.975 541.213 170.093 529.696Z" fill="black"/>
</g>
</g>
<path d="M168.924 509.508C168.924 509.508 201 548.99 201.903 572.665C202.659 592.503 166.963 630.823 166.963 630.823L156.599 624.549C156.599 624.549 177.473 597.308 182.727 575.038C180.723 552.997 137.718 509.508 137.718 509.508H168.924Z" fill="#3C91E6"/>
<g opacity="0.600006">
<g opacity="0.600006">
<path opacity="0.600006" d="M168.924 509.508C168.924 509.508 201 548.99 201.903 572.665C202.659 592.503 166.963 630.823 166.963 630.823L156.599 624.549C156.599 624.549 177.473 597.308 182.727 575.038C180.723 552.997 137.718 509.508 137.718 509.508H168.924Z" fill="black"/>
</g>
</g>
<path d="M129.237 462.406C125.801 463.164 122.518 474.834 122.518 474.834L135.916 483.202C135.916 483.202 140.381 473.979 138.822 469.939C137.198 465.732 133.576 461.449 129.237 462.406Z" fill="#3C91E6"/>
<g opacity="0.199997">
<g opacity="0.199997">
<path opacity="0.199997" d="M131.859 469.914L130.923 480.08L135.911 483.204C135.911 483.204 138.248 478.372 138.944 474.16L131.859 469.914Z" fill="black"/>
</g>
</g>
<path d="M172.891 462.631C172.891 462.631 176.844 463.935 168.924 509.508H135.213C135.778 496.67 135.794 488.754 129.236 462.406C129.236 462.406 136.301 460.968 143.552 460.641C149.225 460.386 153.873 460.216 158.859 460.642C165.435 461.203 172.891 462.631 172.891 462.631Z" fill="#3C91E6"/>
<path d="M176.314 469.868C177.078 471.844 177.885 473.979 178.726 476.032C179.534 478.113 180.373 480.191 181.237 482.261L183.83 488.479L184.487 490.033L184.816 490.81L184.981 491.198C185.01 491.269 185.003 491.262 184.994 491.255C184.948 491.236 184.909 491.04 184.253 490.637C183.932 490.45 183.392 490.27 182.872 490.26C182.348 490.242 181.932 490.361 181.695 490.459C181.218 490.672 181.21 490.763 181.221 490.749C181.252 490.734 181.35 490.646 181.458 490.524C181.92 490.004 182.479 489.108 182.97 488.217C183.47 487.309 183.942 486.338 184.414 485.355C185.35 483.381 186.202 481.323 187.069 479.26C187.926 477.192 188.733 475.094 189.533 472.988L191.942 466.67L196.018 467.632C195.211 472.152 194.169 476.578 192.926 481.02C192.318 483.246 191.616 485.453 190.813 487.681C190.413 488.797 189.964 489.909 189.451 491.044C188.916 492.187 188.387 493.314 187.44 494.625C187.192 494.956 186.91 495.306 186.517 495.692C186.102 496.072 185.622 496.532 184.59 496.967C184.076 497.173 183.36 497.357 182.535 497.325C181.714 497.304 180.88 497.031 180.304 496.697C179.13 495.996 178.725 495.329 178.379 494.827C178.217 494.576 178.08 494.316 177.986 494.129L177.785 493.746L177.384 492.977L176.583 491.44C175.539 489.38 174.514 487.309 173.543 485.214C172.583 483.115 171.646 481.005 170.737 478.878C169.869 476.719 169.01 474.627 168.246 472.33L176.314 469.868Z" fill="#FF8B7B"/>
<path d="M172.891 462.631C176.943 463.535 181.495 474.737 181.495 474.737L169.453 484.339C169.453 484.339 161.649 472.123 163.228 468.09C164.871 463.889 167.597 461.451 172.891 462.631Z" fill="#3C91E6"/>
<path d="M193.82 463.178L198.047 459.87L200.986 464.156L198.82 467.735C198.82 467.735 195.371 470.688 192.318 469.186C191.334 467.093 191.946 464.644 193.82 463.178Z" fill="#FF8B7B"/>
<path d="M205.719 459.88L205.402 460.957L198.707 462.009L198.047 459.87L205.719 459.88Z" fill="#FF8B7B"/>
<path d="M167.821 631.343L155.741 624.03L157.904 620.511L171.481 628.32L167.821 631.343Z" fill="#3C91E6"/>
<path d="M144.897 636.077C146.211 636.702 147.269 636.933 147.778 636.696C147.994 636.594 148.12 636.406 148.162 636.118C148.184 635.964 148.126 635.894 148.071 635.853C147.646 635.517 146.057 635.779 144.897 636.077ZM147.276 637.157C146.316 637.157 145.051 636.586 144.285 636.188C144.217 636.152 144.178 636.082 144.186 636.008C144.192 635.935 144.247 635.874 144.321 635.851C144.647 635.755 147.513 634.933 148.325 635.571C148.453 635.673 148.596 635.858 148.55 636.168C148.491 636.58 148.291 636.869 147.954 637.025C147.759 637.117 147.528 637.157 147.276 637.157Z" fill="#1A2E35"/>
<path d="M146.432 633.511C146.335 633.511 146.237 633.533 146.137 633.577C145.49 633.869 144.946 635.03 144.685 635.735C145.617 635.369 146.888 634.398 146.934 633.855C146.94 633.767 146.919 633.652 146.686 633.561C146.602 633.528 146.516 633.511 146.432 633.511ZM144.381 636.211C144.328 636.211 144.277 636.191 144.24 636.155C144.19 636.108 144.172 636.04 144.191 635.977C144.22 635.886 144.88 633.736 145.967 633.245C146.256 633.117 146.55 633.109 146.837 633.221C147.296 633.401 147.34 633.714 147.325 633.884C147.25 634.774 145.312 636.004 144.427 636.206C144.413 636.21 144.397 636.211 144.381 636.211Z" fill="#1A2E35"/>
<path d="M159.325 639.254C160.662 640.471 161.831 641.143 162.502 641.059C162.737 641.033 162.914 640.914 163.047 640.696C163.097 640.613 163.102 640.54 163.06 640.464C162.778 639.935 160.813 639.478 159.325 639.254ZM162.39 641.434C161.198 641.434 159.537 640.002 158.628 639.121C158.57 639.065 158.556 638.981 158.594 638.911C158.632 638.842 158.727 638.802 158.795 638.811C159.212 638.861 162.892 639.326 163.413 640.299C163.512 640.486 163.504 640.687 163.388 640.878C163.194 641.199 162.911 641.382 162.55 641.426C162.499 641.431 162.445 641.434 162.39 641.434Z" fill="#1A2E35"/>
<path d="M159.168 638.852C160.349 638.914 162.239 638.546 162.486 638.064C162.507 638.024 162.569 637.902 162.296 637.681C162.068 637.499 161.803 637.423 161.497 637.448C160.609 637.522 159.618 638.404 159.168 638.852ZM159.441 639.224C159.169 639.224 158.925 639.208 158.734 639.174C158.665 639.162 158.609 639.118 158.585 639.057C158.561 638.996 158.573 638.927 158.617 638.876C158.679 638.808 160.109 637.193 161.462 637.082C161.886 637.052 162.243 637.156 162.55 637.402C162.967 637.736 162.937 638.033 162.84 638.222C162.505 638.882 160.676 639.224 159.441 639.224Z" fill="#1A2E35"/>
<path d="M144.672 635.169L135.698 632.796C135.371 632.709 135.042 632.851 134.906 633.136L131.877 639.51C131.563 640.171 131.999 640.991 132.757 641.178C135.9 641.954 137.459 642.182 141.406 643.226C143.834 643.868 147.309 645.042 150.662 645.929C153.941 646.796 155.13 643.761 153.819 643.111C147.94 640.195 147.475 638.197 145.867 635.982C145.577 635.582 145.149 635.296 144.672 635.169Z" fill="#3C91E6"/>
<path d="M158.873 637.966L151.213 632.989C150.934 632.808 150.574 632.843 150.345 633.072L145.265 638.176C144.738 638.705 144.866 639.613 145.516 640.02C148.218 641.712 149.615 642.401 152.983 644.59C155.055 645.936 159.193 648.922 162.054 650.781C164.853 652.6 167.033 650.092 166.019 649.079C161.474 644.531 160.471 641.682 159.721 639.098C159.586 638.632 159.281 638.231 158.873 637.966Z" fill="#3C91E6"/>
<path d="M152.663 628.751L138.85 622.327L140.279 618.83L155.023 625.593L152.663 628.751Z" fill="#3C91E6"/>
<path d="M134.708 507.657L133.54 510.481C133.421 510.7 133.699 510.923 134.088 510.923H169.091C169.395 510.923 169.646 510.784 169.665 510.605L169.97 507.782C169.99 507.586 169.727 507.42 169.395 507.42H135.257C135.006 507.42 134.784 507.516 134.708 507.657Z" fill="#3C91E6"/>
<g opacity="0.399994">
<g opacity="0.399994">
<path opacity="0.399994" d="M134.708 507.657L133.54 510.481C133.421 510.7 133.699 510.923 134.088 510.923H169.091C169.395 510.923 169.646 510.784 169.665 510.605L169.97 507.782C169.99 507.586 169.727 507.42 169.395 507.42H135.257C135.006 507.42 134.784 507.516 134.708 507.657Z" fill="white"/>
</g>
</g>
<path d="M140.213 511.229H139.299C139.116 511.229 138.979 511.142 138.99 511.034L139.42 507.366C139.433 507.258 139.591 507.17 139.773 507.17H140.687C140.87 507.17 141.008 507.258 140.996 507.366L140.567 511.034C140.554 511.142 140.395 511.229 140.213 511.229Z" fill="#3C91E6"/>
<path d="M161.803 511.229H160.889C160.707 511.229 160.569 511.142 160.581 511.034L161.01 507.366C161.022 507.258 161.181 507.17 161.363 507.17H162.278C162.46 507.17 162.599 507.258 162.586 507.366L162.157 511.034C162.145 511.142 161.985 511.229 161.803 511.229Z" fill="#3C91E6"/>
<path d="M111.063 676.97C111.011 678.032 123.66 678.895 139.314 678.896C154.968 678.897 167.701 678.035 167.753 676.973C167.805 675.91 155.157 675.048 139.502 675.047C123.848 675.046 111.115 675.907 111.063 676.97Z" fill="#F5F5F5"/>
<path d="M156.681 674.256C151.666 672.894 146.147 671.139 142.731 669.272C142.637 669.22 142.537 669.183 142.441 669.135V647.921H152.526C154.195 647.921 155.547 646.656 155.547 645.096C155.547 643.535 154.195 642.269 152.526 642.269H142.441V545.425H136.4V642.269H126.312C124.645 642.269 123.293 643.535 123.293 645.096C123.293 646.656 124.645 647.921 126.312 647.921H136.4V669.135C136.303 669.183 136.203 669.22 136.107 669.272C132.692 671.139 127.174 672.894 122.158 674.256C120.512 674.703 120.859 676.97 122.573 676.97H139.42H156.266C157.98 676.97 158.327 674.703 156.681 674.256Z" fill="#E1E1E1"/>
<path d="M158.234 556.295H120.606C117.592 556.295 115.125 553.987 115.125 551.165V540.699C115.125 537.878 117.592 535.57 120.606 535.57H158.234C161.248 535.57 163.714 537.878 163.714 540.699V551.165C163.714 553.987 161.248 556.295 158.234 556.295Z" fill="#3C91E6"/>
<path d="M120.26 556.295V558.095C120.26 559.581 121.987 560.796 124.098 560.796H154.741C156.852 560.796 158.579 559.581 158.579 558.095V556.295H120.26Z" fill="#3C91E6"/>
<g opacity="0.300003">
<g opacity="0.300003">
<path opacity="0.300003" d="M120.26 556.295V558.095C120.26 559.581 121.987 560.796 124.098 560.796H154.741C156.852 560.796 158.579 559.581 158.579 558.095V556.295H120.26Z" fill="white"/>
</g>
</g>
<path d="M297.57 545.593C297.713 538.128 291.701 532 284.236 532H249.759C242.492 532 236.563 537.817 236.424 545.082C236.281 552.546 242.293 558.674 249.759 558.674H284.236C291.502 558.674 297.431 552.858 297.57 545.593Z" fill="#FF8B7B"/>
<path d="M254.296 550.964H245.962V539.061H248.345V548.582H254.296V550.964ZM263.659 546.44C263.659 547.104 263.54 547.724 263.303 548.299C263.065 548.869 262.741 549.365 262.331 549.785C261.922 550.2 261.44 550.529 260.887 550.773C260.339 551.011 259.75 551.13 259.119 551.13C258.494 551.13 257.904 551.011 257.351 550.773C256.803 550.529 256.322 550.2 255.907 549.785C255.497 549.365 255.173 548.869 254.935 548.299C254.697 547.724 254.578 547.104 254.578 546.44C254.578 545.765 254.697 545.139 254.935 544.564C255.173 543.988 255.497 543.493 255.907 543.078C256.322 542.658 256.803 542.328 257.351 542.09C257.904 541.852 258.494 541.733 259.119 541.733C259.75 541.733 260.339 541.847 260.887 542.074C261.44 542.295 261.922 542.613 262.331 543.028C262.741 543.438 263.065 543.933 263.303 544.514C263.54 545.09 263.659 545.732 263.659 546.44ZM261.377 546.44C261.377 546.075 261.316 545.745 261.194 545.452C261.078 545.153 260.917 544.899 260.713 544.688C260.508 544.473 260.267 544.309 259.991 544.199C259.719 544.083 259.429 544.024 259.119 544.024C258.809 544.024 258.516 544.083 258.239 544.199C257.968 544.309 257.73 544.473 257.525 544.688C257.326 544.899 257.168 545.153 257.052 545.452C256.936 545.745 256.878 546.075 256.878 546.44C256.878 546.783 256.936 547.101 257.052 547.395C257.168 547.688 257.326 547.942 257.525 548.158C257.73 548.374 257.968 548.546 258.239 548.673C258.516 548.795 258.809 548.855 259.119 548.855C259.429 548.855 259.719 548.797 259.991 548.681C260.267 548.565 260.508 548.402 260.713 548.191C260.917 547.981 261.078 547.727 261.194 547.428C261.316 547.129 261.377 546.8 261.377 546.44ZM271.238 546.44C271.238 546.13 271.177 545.831 271.055 545.543C270.939 545.25 270.779 544.993 270.574 544.771C270.369 544.545 270.129 544.365 269.852 544.232C269.581 544.094 269.29 544.024 268.98 544.024C268.67 544.024 268.377 544.077 268.1 544.182C267.829 544.287 267.591 544.442 267.387 544.647C267.187 544.852 267.03 545.106 266.913 545.411C266.797 545.709 266.739 546.053 266.739 546.44C266.739 546.811 266.797 547.146 266.913 547.444C267.03 547.738 267.187 547.989 267.387 548.2C267.591 548.41 267.829 548.573 268.1 548.689C268.377 548.8 268.67 548.855 268.98 548.855C269.29 548.855 269.581 548.789 269.852 548.656C270.129 548.518 270.369 548.338 270.574 548.117C270.779 547.89 270.939 547.632 271.055 547.345C271.177 547.051 271.238 546.75 271.238 546.44ZM273.521 549.843C273.521 550.469 273.402 551.055 273.164 551.603C272.926 552.151 272.599 552.63 272.184 553.039C271.775 553.449 271.293 553.772 270.74 554.01C270.192 554.248 269.606 554.367 268.98 554.367L267.843 554.351V552.084L268.964 552.101C269.318 552.101 269.619 552.054 269.868 551.96C270.117 551.871 270.328 551.747 270.499 551.586C270.671 551.431 270.806 551.252 270.906 551.047C271.011 550.842 271.094 550.626 271.155 550.399C271.067 550.543 270.939 550.662 270.773 550.756C270.607 550.845 270.422 550.917 270.217 550.972C270.018 551.033 269.808 551.075 269.586 551.097C269.37 551.119 269.168 551.13 268.98 551.13C268.355 551.13 267.766 551.022 267.212 550.806C266.664 550.59 266.183 550.283 265.768 549.885C265.358 549.481 265.035 548.988 264.797 548.407C264.559 547.826 264.44 547.17 264.44 546.44C264.44 545.77 264.559 545.148 264.797 544.572C265.035 543.997 265.358 543.499 265.768 543.078C266.183 542.658 266.664 542.328 267.212 542.09C267.766 541.852 268.355 541.733 268.98 541.733C269.268 541.733 269.553 541.769 269.835 541.841C270.117 541.913 270.391 542.013 270.657 542.14C270.923 542.267 271.174 542.417 271.412 542.588C271.656 542.76 271.883 542.945 272.093 543.145L272.973 542.09H273.521V549.843ZM277.928 539.658C277.928 539.868 277.887 540.065 277.804 540.248C277.727 540.43 277.619 540.591 277.48 540.729C277.342 540.862 277.179 540.97 276.991 541.053C276.808 541.13 276.611 541.169 276.401 541.169C276.191 541.169 275.992 541.13 275.803 541.053C275.621 540.97 275.46 540.862 275.322 540.729C275.189 540.591 275.081 540.43 274.998 540.248C274.921 540.065 274.882 539.868 274.882 539.658C274.882 539.453 274.921 539.26 274.998 539.077C275.081 538.889 275.189 538.729 275.322 538.596C275.46 538.457 275.621 538.349 275.803 538.272C275.992 538.189 276.191 538.147 276.401 538.147C276.611 538.147 276.808 538.189 276.991 538.272C277.179 538.349 277.342 538.457 277.48 538.596C277.619 538.729 277.727 538.889 277.804 539.077C277.887 539.26 277.928 539.453 277.928 539.658ZM277.538 550.964H275.256V542.074H277.538V550.964ZM281.539 550.964H279.273V542.074H279.821L280.568 542.937C280.933 542.605 281.346 542.35 281.805 542.173C282.27 541.991 282.754 541.899 283.258 541.899C283.8 541.899 284.312 542.005 284.793 542.215C285.275 542.42 285.695 542.705 286.055 543.07C286.415 543.43 286.697 543.853 286.902 544.34C287.112 544.821 287.217 545.336 287.217 545.884V550.964H284.951V545.884C284.951 545.651 284.907 545.433 284.818 545.228C284.73 545.018 284.608 544.835 284.453 544.68C284.298 544.525 284.118 544.403 283.913 544.315C283.709 544.226 283.49 544.182 283.258 544.182C283.02 544.182 282.796 544.226 282.585 544.315C282.375 544.403 282.192 544.525 282.037 544.68C281.882 544.835 281.761 545.018 281.672 545.228C281.584 545.433 281.539 545.651 281.539 545.884V550.964Z" fill="white"/>
</g>
<defs>
<linearGradient id="paint0_linear" x1="868" y1="1.36846e-06" x2="90.3534" y2="1077.91" gradientUnits="userSpaceOnUse">
<stop offset="0.0703862" stop-color="#3C91E6"/>
<stop offset="0.94693" stop-color="#F25F5C" stop-opacity="0.55"/>
</linearGradient>
<clipPath id="clip0">
<rect y="264" width="529" height="495" fill="white"/>
</clipPath>
</defs>
</svg>
