<svg width="300" height="300" viewBox="0 0 300 300" fill="none" xmlns="http://www.w3.org/2000/svg">
<path d="M150 300C232.843 300 300 232.843 300 150C300 67.1573 232.843 0 150 0C67.1573 0 0 67.1573 0 150C0 232.843 67.1573 300 150 300Z" fill="#E5E5E5"/>
<mask id="mask0" mask-type="alpha" maskUnits="userSpaceOnUse" x="0" y="0" width="300" height="300">
<path d="M150 300C232.843 300 300 232.843 300 150C300 67.1573 232.843 0 150 0C67.1573 0 0 67.1573 0 150C0 232.843 67.1573 300 150 300Z" fill="white"/>
</mask>
<g mask="url(#mask0)">
<g filter="url(#filter0_d)">
<path fill-rule="evenodd" clip-rule="evenodd" d="M95 209.784C113.333 223.117 131.667 233.784 150 233.784C168.333 233.784 186.667 223.117 205 209.784C189.888 205.185 182.223 198.319 182.005 189.187C182.009 187.559 182.017 185.248 182.028 180.906C182.029 180.217 182.031 179.511 182.033 178.789C182.063 167.148 182.112 151.792 182.181 136.188C196.513 117.611 191.248 95.8321 186.756 96.3752C181.246 97.0416 133.543 51.774 124.393 49.4578C115.243 47.1416 92 54.6251 88 75.5001C84 96.3752 82.3281 148.993 97.5 170C101.817 175.978 108.617 178.316 117.897 177.015C117.91 181.383 117.936 183.835 118 188.784C117.881 198.333 110.215 205.189 95 209.784Z" fill="url(#paint0_linear)"/>
<mask id="mask1" mask-type="alpha" maskUnits="userSpaceOnUse" x="85" y="49" width="120" height="185">
<path fill-rule="evenodd" clip-rule="evenodd" d="M95 209.784C113.333 223.117 131.667 233.784 150 233.784C168.333 233.784 186.667 223.117 205 209.784C189.888 205.185 182.223 198.319 182.005 189.187C182.009 187.559 182.017 185.248 182.028 180.906C182.029 180.217 182.031 179.511 182.033 178.789C182.063 167.148 182.112 151.792 182.181 136.188C196.513 117.611 191.248 95.8321 186.756 96.3752C181.246 97.0416 133.543 51.774 124.393 49.4578C115.243 47.1416 92 54.6251 88 75.5001C84 96.3752 82.3281 148.993 97.5 170C101.817 175.978 108.617 178.316 117.897 177.015C117.91 181.383 117.936 183.835 118 188.784C117.881 198.333 110.215 205.189 95 209.784Z" fill="white"/>
</mask>
<g mask="url(#mask1)">
<path d="M118 177C140 174.5 154 165 154 165C154 165 138 185 118 189V177Z" fill="#FC9F6A"/>
</g>
<path d="M189.5 136.5C196.39 119.93 224 86.1835 200.201 65.1835C192.201 26.1835 148 30.5001 118.5 39.5001C98.6731 45.549 83.7012 57.5001 80.5 48.5001C60.5 65.1835 70.5157 81.5001 83.7012 86.1835C95.6676 90.4339 115.903 94.6835 150.307 90.6835C156.453 89.9689 155.166 108.791 158.45 110.827C163.377 113.88 167.201 94.6835 180.709 100.447C194.216 106.211 186.201 132.937 171.701 132.937C166.701 132.937 164.201 146.684 177.701 153.184C187.5 158 185.023 147.267 189.5 136.5Z" fill="#1A0020"/>
</g>
<path d="M255 240.308C264.52 259.665 270 304.308 270 304.308H30C30 304.308 35.4824 259.66 45 240.308C54.5176 220.956 110.099 203.007 110.099 203.007C140.813 215.005 159.608 215.002 189.871 203C189.871 203 245.48 220.951 255 240.308Z" fill="#190020"/>
<path d="M157 210L162 302H138L143 210C143 210 147.667 205 150 205C152.333 205 157 210 157 210Z" fill="#F25F5C"/>
<path d="M158.14 228.692L142.414 219.606L143 210C146.111 206.667 148.444 205 150 205C151.556 205 153.889 206.667 157 210L158.14 228.692V228.692Z" fill="#645050"/>
<mask id="mask2" mask-type="alpha" maskUnits="userSpaceOnUse" x="142" y="205" width="17" height="24">
<path d="M158.14 228.692L142.414 219.606L143 210C146.111 206.667 148.444 205 150 205C151.556 205 153.889 206.667 157 210L158.14 228.692V228.692Z" fill="white"/>
</mask>
<g mask="url(#mask2)">
</g>
<path fill-rule="evenodd" clip-rule="evenodd" d="M150 204.991L160 223L191 204L182 191L150 202.821L118 191L109 204L140 223L150 204.991Z" fill="#E5E5E5"/>
</g>
<defs>
<filter id="filter0_d" x="57.1863" y="28.3881" width="164.509" height="224.396" filterUnits="userSpaceOnUse" color-interpolation-filters="sRGB">
<feFlood flood-opacity="0" result="BackgroundImageFix"/>
<feColorMatrix in="SourceAlpha" type="matrix" values="0 0 0 0 0 0 0 0 0 0 0 0 0 0 0 0 0 0 127 0"/>
<feOffset dy="7"/>
<feGaussianBlur stdDeviation="6"/>
<feColorMatrix type="matrix" values="0 0 0 0 0 0 0 0 0 0 0 0 0 0 0.145098 0 0 0 0.04 0"/>
<feBlend mode="normal" in2="BackgroundImageFix" result="effect1_dropShadow"/>
<feBlend mode="normal" in="SourceGraphic" in2="effect1_dropShadow" result="shape"/>
</filter>
<linearGradient id="paint0_linear" x1="205" y1="49.053" x2="205" y2="233.784" gradientUnits="userSpaceOnUse">
<stop stop-color="#F7B186"/>
<stop offset="1" stop-color="#FFC299"/>
</linearGradient>
</defs>
</svg>
