<svg width="35" height="26" viewBox="0 0 35 26" fill="none" xmlns="http://www.w3.org/2000/svg">
<g clip-path="url(#clip0)">
<path d="M12.6 5.24993L19.95 5.24993L19.95 19.9499L12.6 19.9499V22.0499L19.95 22.0499C21.105 22.0499 22.05 21.1049 22.05 19.9499L22.05 5.24993C22.05 4.09493 21.105 3.14993 19.95 3.14993L12.6 3.14993L12.6 5.24993ZM13.3035 11.5499L10.5945 8.83043L12.075 7.34993L17.325 12.5999L12.075 17.8499L10.5945 16.3694L13.3035 13.6499L3.15002 13.6499L3.15002 11.5499L13.3035 11.5499Z" fill="#3C91E6"/>
</g>
<g clip-path="url(#clip1)">
<rect x="19.6" width="15.4" height="15.4" fill="white"/>
<path d="M28.4 1.18457C24.7553 1.18457 21.8 4.1399 21.8 7.78457H19.6L22.4526 10.6372L22.504 10.7399L25.4666 7.78457H23.2666C23.2666 4.94657 25.562 2.65124 28.4 2.65124C31.238 2.65124 33.5333 4.94657 33.5333 7.78457C33.5333 10.6226 31.238 12.9179 28.4 12.9179C26.9846 12.9179 25.7013 12.3386 24.7773 11.4072L23.736 12.4486C24.9313 13.6439 26.574 14.3846 28.4 14.3846C32.0446 14.3846 35 11.4292 35 7.78457C35 4.1399 32.0446 1.18457 28.4 1.18457ZM27.6666 4.85124V8.51791L30.7833 10.3659L31.348 9.42724L28.7666 7.89457V4.85124H27.6666Z" fill="#3C91E6"/>
</g>
<defs>
<clipPath id="clip0">
<rect y="25.2" width="25.2" height="25.2" transform="rotate(-90 0 25.2)" fill="white"/>
</clipPath>
<clipPath id="clip1">
<rect x="19.6" width="15.4" height="15.4" fill="white"/>
</clipPath>
</defs>
</svg>
